HIERARCHY
ROOT ui
{
	 OFFSET 0 0 0
	 CHANNELS 3 XPosition YPosition Z Position
	 EndSite
	 {
	 OFFSET 0 -1 0
	 }
}
ROOT li
{
	 OFFSET 0 0 0
	 CHANNELS 3 XPosition YPosition Z Position
	 EndSite
	 {
	 OFFSET 0 -1 0
	 }
}
ROOT ul
{
	 OFFSET 0 0 0
	 CHANNELS 3 XPosition YPosition Z Position
	 EndSite
	 {
	 OFFSET 0 -1 0
	 }
}
ROOT ll
{
	 OFFSET 0 0 0
	 CHANNELS 3 XPosition YPosition Z Position
	 EndSite
	 {
	 OFFSET 0 -1 0
	 }
}
ROOT tt
{
	 OFFSET 0 0 0
	 CHANNELS 3 XPosition YPosition Z Position
	 EndSite
	 {
	 OFFSET 0 -1 0
	 }
}
ROOT tb
{
	 OFFSET 0 0 0
	 CHANNELS 3 XPosition YPosition Z Position
	 EndSite
	 {
	 OFFSET 0 -1 0
	 }
}
ROOT td
{
	 OFFSET 0 0 0
	 CHANNELS 3 XPosition YPosition Z Position
	 EndSite
	 {
	 OFFSET 0 -1 0
	 }
}
ROOT v
{
	 OFFSET 0 0 0
	 CHANNELS 3 XPosition YPosition Z Position
	 EndSite
	 {
	 OFFSET 0 -1 0
	 }
}
ROOT bn
{
	 OFFSET 0 0 0
	 CHANNELS 3 XPosition YPosition Z Position
	 EndSite
	 {
	 OFFSET 0 -1 0
	 }
}
MOTION
Frames: 32
Frame Time: 0.002
-0.0024959859848022463	-0.0018135180473327637	0		0.5959536743164062	-2.51628125	0		-1.024611572265625	0.32364712524414063	0		-0.7340540161132812	-2.180073486328125	0		1.9220858154296876	-1.116313232421875	0		3.087445556640625	-0.025411975860595702	0		4.419984375	0.750431884765625	0		6.00829443359375	0.6298601684570313	0		-0.3837109985351562	5.90026171875	0		
-0.0024551429748535156	-0.0020030760765075684	0		0.6586226196289062	-2.52929443359375	0		-1.0136656494140626	0.3134129638671875	0		-0.7562021484375	-2.179929443359375	0		1.8811915283203124	-1.1031697998046874	0		3.085876708984375	0.006150129795074463	0		4.40533740234375	0.7700375366210938	0		5.9992705078125	0.6704056396484375	0		-0.36803216552734375	5.9099208984375	0		
0.001660781979560852	0.0017486050128936767	0		0.6047470092773437	-2.505888427734375	0		-1.0356424560546875	0.3075786437988281	0		-0.7472235717773438	-2.171171142578125	0		1.888293212890625	-1.0926275634765625	0		3.0829814453125	0.008706597328186036	0		4.39172265625	0.789608154296875	0		6.01287890625	0.6687002563476563	0		-0.38440005493164064	5.91196533203125	0		
0.0017579950094223022	0.0015397429466247558	0		0.6595919189453125	-2.507837890625	0		-0.9384493408203125	0.3122600708007813	0		-0.7453057250976562	-2.169334716796875	0		1.8835865478515625	-1.0689532470703125	0		3.076565185546875	0.04729232406616211	0		4.40505419921875	0.8018241577148437	0		6.01103271484375	0.7089334106445313	0		-0.398870849609375	5.90197998046875	0		
0.0018891040086746215	0.001320112943649292	0		0.5966388549804688	-2.49533154296875	0		-1.0292061767578125	0.31927047729492186	0		-0.7193212280273438	-2.164809326171875	0		1.874666259765625	-1.065239990234375	0		3.034666259765625	0.04430586624145508	0		4.40318701171875	0.7952096557617188	0		6.0104423828125	0.7110323486328125	0		-0.40015118408203126	5.90382373046875	0		
-0.001992524981498718	-0.0028606109619140627	0		0.6126436157226562	-2.489822509765625	0		-1.0221846923828124	0.305050048828125	0		-0.7553186645507812	-2.161517578125	0		1.873909912109375	-1.051638916015625	0		3.024155517578125	0.06892173767089843	0		4.39359619140625	0.8076832275390625	0		6.0056904296875	0.7305408325195313	0		-0.3653460693359375	5.90920068359375	0		
0.002267069101333618	8.437939882278442E-4	0		0.5985701293945312	-2.49394580078125	0		-1.054893310546875	0.3093207092285156	0		-0.753286376953125	-2.159717041015625	0		1.86933935546875	-1.0269971923828125	0		3.024371337890625	0.06839418029785156	0		4.39779150390625	0.7999771728515624	0		6.00585205078125	0.7291360473632813	0		-0.3825441589355469	5.91221875	0		
0.024467073440551757	-0.0036968059539794922	0		0.6036890258789063	-2.487322998046875	0		-1.0885584716796874	0.31359173583984373	0		-0.8210930786132813	-2.149037841796875	0		1.83966943359375	-1.0140400390625	0		3.009041748046875	0.10006688690185547	0		4.395283203125	0.8123618774414062	0		6.0096923828125	0.74320654296875	0		-0.33257345581054687	5.926365234375	0		
0.002818052053451538	3.1072500348091123E-4	0		0.5870391235351563	-2.467429443359375	0		-1.0122408447265625	0.3124283447265625	0		-0.7460191040039063	-2.153210205078125	0		1.8770345458984374	-1.0029453125	0		3.01733447265625	0.09843938446044923	0		4.4066474609375	0.8115801391601563	0		6.01704833984375	0.7416353149414062	0		-0.35267718505859375	5.93438916015625	0		
-8.921359777450562E-4	-0.003926526069641114	0		0.587196044921875	-2.4677626953125	0		-1.1020242919921874	0.30138323974609377	0		-0.78483544921875	-2.15293798828125	0		1.8295643310546874	-0.9827538452148438	0		3.036992919921875	0.12167609405517578	0		4.4011279296875	0.817038818359375	0		6.01730322265625	0.7403486938476562	0		-0.18456903076171874	5.9579580078125	0		
-5.107449889183045E-4	-0.004231042861938476	0		0.5874187622070313	-2.46810498046875	0		-1.0246297607421875	0.3001458435058594	0		-0.7704502563476563	-2.14237548828125	0		1.8670360107421875	-0.97165966796875	0		2.99941162109375	0.12367111206054687	0		4.41548291015625	0.8102687377929687	0		6.017583984375	0.7391441650390626	0		-0.30292385864257815	5.94921728515625	0		
-9.263300150632858E-5	-0.004550041198730469	0		0.5637737426757813	-2.463141357421875	0		-1.0893077392578125	0.29173272705078124	0		-0.8430737915039063	-2.136698486328125	0		1.8635340576171875	-0.9620261840820312	0		2.99307275390625	0.14128314208984374	0		4.403115234375	0.8228846435546875	0		6.0180673828125	0.7709017333984375	0		-0.30219009399414065	5.94891455078125	0		
0.004410770893096924	-9.345830082893371E-4	0		0.5951734619140625	-2.45990380859375	0		-1.0738193359375	0.2932488098144531	0		-0.7938197021484374	-2.14563818359375	0		1.86922119140625	-0.9415021362304687	0		3.040486572265625	0.13721122741699218	0		4.40867919921875	0.8283053588867187	0		6.01839501953125	0.7698943481445313	0		-0.3335958251953125	5.94101611328125	0		
0.015021897315979004	0.008590970993041992	0		0.5877272338867188	-2.44915869140625	0		-1.075211669921875	0.30196395874023435	0		-0.8032960205078125	-2.13782568359375	0		1.9029737548828125	-0.9193350219726563	0		3.02147265625	0.17504019165039061	0		4.4232744140625	0.8346494750976563	0		6.02240185546875	0.7861793212890625	0		-0.33392803955078126	5.94169677734375	0		
4.614660143852234E-4	0.0034391119480133058	0		0.587162353515625	-2.45150537109375	0		-1.04986279296875	0.28930459594726565	0		-0.772950439453125	-2.147555908203125	0		1.8906474609375	-0.9055477294921875	0		3.01383544921875	0.16374427795410157	0		4.42696435546875	0.8471820678710937	0		6.0191044921875	0.7682064819335938	0		-0.33429415893554687	5.9433662109375	0		
0.0059154977798461916	-0.0019824440479278564	0		0.5617109375	-2.448522216796875	0		-1.0773515625	0.28832354736328125	0		-0.7775074462890625	-2.152841552734375	0		1.8823876953125	-0.888797119140625	0		3.022501220703125	0.17426509094238282	0		4.442580078125	0.8536031494140625	0		6.02313671875	0.7847166748046875	0		-0.29967791748046874	5.94756298828125	0		
-0.0025424249172210692	-0.0012255890369415284	0		0.5892388305664062	-2.450236083984375	0		-1.0708916015625	0.28287649536132814	0		-0.7789920654296875	-2.155181396484375	0		1.8851583251953126	-0.8711749877929688	0		3.052012451171875	0.17254025268554687	0		4.4470234375	0.847217041015625	0		6.01362158203125	0.8017744140625	0		-0.33324993896484373	5.94264794921875	0		
0.0020364320278167727	0.0023547229766845705	0		0.5419448852539063	-2.43996142578125	0		-1.061265625	0.29037158203125	0		-0.8463026733398438	-2.14566796875	0		1.9148690185546875	-0.8588906860351563	0		3.03880029296875	0.19241061401367188	0		4.45178466796875	0.8658755493164062	0		6.01399462890625	0.801327880859375	0		-0.33282955932617186	5.942275390625	0		
0.007485579013824463	-0.0030813438892364504	0		0.5866065673828125	-2.43489453125	0		-1.0607587890625	0.28996963500976564	0		-0.8097540283203125	-2.1485361328125	0		1.903778076171875	-0.8310504150390625	0		3.052203857421875	0.18395860290527344	0		4.46328662109375	0.8664903564453125	0		6.01435693359375	0.8009937133789062	0		-0.33248809814453123	5.94189501953125	0		
0.0030452909469604493	0.0016095980405807495	0		0.52638720703125	-2.420447998046875	0		-1.0543427734375	0.2844742431640625	0		-0.7752417602539062	-2.154387939453125	0		1.9224739990234374	-0.8185845336914063	0		3.07591064453125	0.20040513610839844	0		4.47374462890625	0.8661655883789062	0		6.02112060546875	0.8005672607421875	0		-0.33322146606445313	5.94252001953125	0		
0.0035059709548950196	0.0012327229976654053	0		0.5690210571289063	-2.417345947265625	0		-1.053896728515625	0.28404299926757814	0		-0.8126669921875	-2.154309326171875	0		1.90730419921875	-0.79365625	0		3.072296142578125	0.1952388610839844	0		4.4702392578125	0.8720702514648437	0		6.01868115234375	0.8178451538085938	0		-0.2990040283203125	5.94668212890625	0		
0.008855892181396484	-0.004210391998291016	0		0.5275382080078125	-2.42114404296875	0		-1.1145587158203125	0.2793905334472656	0		-0.8121177368164062	-2.15473876953125	0		1.95592041015625	-0.7825404052734375	0		3.06879052734375	0.20210227966308594	0		4.4706005859375	0.87196923828125	0		6.023134765625	0.7969508666992188	0		-0.332033447265625	5.94071337890625	0		
0.004277187824249268	4.7452101111412047E-4	0		0.559118896484375	-2.417885986328125	0		-1.1341309814453124	0.2861873779296875	0		-0.8336165161132812	-2.1558935546875	0		1.9256455078125	-0.75838037109375	0		3.100090576171875	0.19854522705078126	0		4.48298291015625	0.8787581787109375	0		6.03120361328125	0.7933522338867187	0		-0.31500634765625	5.94808935546875	0		
-0.06634455108642578	0.008004822731018067	0		0.5527422485351563	-2.407130859375	0		-1.0938751220703125	0.285201416015625	0		-0.8050560913085938	-2.148701416015625	0		1.9564112548828125	-0.7259889526367187	0		3.1006005859375	0.21741912841796876	0		4.486359375	0.8917079467773438	0		6.034345703125	0.8125037231445312	0		-0.3313402099609375	5.9378896484375	0		
0.004758196830749512	-2.834259867668152E-4	0		0.5750699462890625	-2.41473876953125	0		-1.093702880859375	0.28472238159179686	0		-0.8347860107421875	-2.158771484375	0		1.9478931884765625	-0.7090757446289062	0		3.08764013671875	0.2064901885986328	0		4.4773115234375	0.8788550415039063	0		6.029587890625	0.8337266845703125	0		-0.31373745727539065	5.93325146484375	0		
-0.07311331176757813	0.0013239049911499023	0		0.5514856567382812	-2.4097568359375	0		-1.103721923828125	0.2763619384765625	0		-0.8005267333984375	-2.164661865234375	0		1.945376953125	-0.6852234497070312	0		3.116714111328125	0.20505410766601562	0		4.47733349609375	0.8789238891601563	0		6.0294775390625	0.8012581787109375	0		-0.34728073120117187	5.92825927734375	0		
0.004892579078674316	-0.0010385249853134156	0		0.525808349609375	-2.406750244140625	0		-1.1276873779296874	0.2791659545898437	0		-0.8263305053710938	-2.1697998046875	0		1.9517501220703124	-0.6634696044921875	0		3.13870263671875	0.2037350158691406	0		4.4672646484375	0.8791513061523437	0		6.02599169921875	0.8174127197265625	0		-0.3138443908691406	5.93141796875	0		
0.0048434572219848634	-0.0014163529872894287	0		0.556054931640625	-2.40544140625	0		-1.1167816162109374	0.27752310180664064	0		-0.8142086791992188	-2.17642041015625	0		1.9790843505859375	-0.6389633178710937	0		3.138865966796875	0.22271157836914063	0		4.486275390625	0.89204345703125	0		6.0367236328125	0.8349315795898438	0		-0.36657559204101564	5.9306494140625	0		
0.0028336689472198487	0.0062286748886108394	0		0.522394287109375	-2.392337890625	0		-1.1169229736328126	0.27701104736328125	0		-0.8239597778320312	-2.168774169921875	0		1.97653125	-0.6000740966796875	0		3.14747216796875	0.20159548950195313	0		4.48606103515625	0.8921962280273438	0		6.0395830078125	0.8562021484375	0		-0.3143917236328125	5.92957470703125	0		
0.004582657814025879	-0.0021762380599975586	0		0.5724454956054688	-2.400263427734375	0		-1.082160888671875	0.2720672302246094	0		-0.8309317016601563	-2.1761708984375	0		1.9896943359375	-0.580373291015625	0		3.171378173828125	0.20830674743652344	0		4.485798828125	0.8923639526367187	0		6.038564453125	0.8222601318359375	0		-0.3445238037109375	5.90850927734375	0		
0.004399696826934815	-0.002560333013534546	0		0.52062548828125	-2.39495068359375	0		-1.1223751220703124	0.2720293884277344	0		-0.8369154663085937	-2.18258642578125	0		2.02385791015625	-0.5579210205078124	0		3.153110107421875	0.20353457641601563	0		4.48550439453125	0.8925384521484375	0		6.034236328125	0.8437958374023438	0		-0.34543154907226564	5.90908154296875	0		
0.004199140071868897	-0.00294870400428772	0		0.522748046875	-2.393298583984375	0		-1.151619873046875	0.27084564208984374	0		-0.8439260864257813	-2.18999609375	0		1.9989312744140626	-0.5407598876953125	0		3.166870849609375	0.20237355041503907	0		4.482037109375	0.8797476806640625	0		6.0340703125	0.8444447631835937	0		-0.39457125854492187	5.89222265625	0		
